<?xml version="1.0" encoding="utf-8"?>
<!-- Svg Vector Icons : http://www.onlinewebfonts.com/icon -->
<!DOCTYPE svg PUBLIC "-//W3C//DTD SVG 1.1//EN" "http://www.w3.org/Graphics/SVG/1.1/DTD/svg11.dtd">
<svg version="1.1" xmlns="http://www.w3.org/2000/svg" xmlns:xlink="http://www.w3.org/1999/xlink" x="0px" y="0px" viewBox="0 0 1000 1000" enable-background="new 0 0 1000 1000" xml:space="preserve">
<metadata> Svg Vector Icons : http://www.onlinewebfonts.com/icon </metadata>
<g><path d="M191.5,150.4h472c50,0,95.3,20.4,128.2,53.3C824.6,236.6,845,282,845,331.9v20.4h-64.2v-20.4c0-32.2-13.2-61.6-34.5-82.8c-21.3-21.3-50.6-34.5-82.9-34.5h-472c-31.5,0-60.2,12.6-81.4,32.9c-0.5,0.5-1,1.1-1.5,1.6v0c-21.3,21.3-34.5,50.6-34.5,82.8v336.2c0,31.5,12.6,60.3,33,81.4c0.5,0.5,1,0.9,1.5,1.4l-0.1,0.1l0,0c21.3,21.2,50.6,34.4,82.9,34.4h472c32.1,0,61.4-13.1,82.7-34.3l0.2-0.2h0l0,0.1c21.2-21.3,34.4-50.6,34.4-82.9v-20.4H845v20.4c0,49.9-20.4,95.2-53.3,128.1L769,773.6l22.7,22.7l-0.6,0.6c-32.8,32.5-78,52.7-127.6,52.7h-472c-49.8,0-95.2-20.4-128.1-53.3L86,773.6l-22.7,22.7c-0.6-0.6-1.2-1.3-1.8-2C29.7,761.6,10,717,10,668.1V331.9c0-49.9,20.4-95.3,53.3-128.2v0c0.7-0.6,1.3-1.3,2-1.9C98,170.1,142.6,150.4,191.5,150.4L191.5,150.4L191.5,150.4z"/><path d="M222.1,333.8c-17.7,0-32.1,14.4-32.1,32.1c0,17.7,14.4,32.1,32.1,32.1h382c17.7,0,32.1-14.4,32.1-32.1c0-17.7-14.4-32.1-32.1-32.1H222.1L222.1,333.8L222.1,333.8z"/><path d="M218.6,469.6c-17.7,0-32.1,14.4-32.1,32.1c0,17.7,14.4,32.1,32.1,32.1h271.7c17.7,0,32.1-14.4,32.1-32.1c0-17.7-14.4-32.1-32.1-32.1H218.6L218.6,469.6L218.6,469.6z"/><path d="M220.4,607.1c-17.7,0-32.1,14.4-32.1,32.1c0,17.7,14.4,32.1,32.1,32.1h157.9c17.7,0,32.1-14.4,32.1-32.1c0-17.7-14.4-32.1-32.1-32.1H220.4L220.4,607.1L220.4,607.1z"/><path d="M611.1,563l319.2-229.2l59.7,83L670.8,646L611.1,563z"/><path d="M594.8,574.8l59.4,83.3l-120,23.5L594.8,574.8z"/><path d="M643.2,523.7"/></g>
</svg>